<mxfile host="app.diagrams.net" modified="2021-01-01T07:13:31.930Z" agent="5.0 (Macintosh; Intel Mac OS X 10_15_6) AppleWebKit/537.36 (KHTML, like Gecko) Chrome/86.0.4240.193 Safari/537.36" etag="lc6JRN5nt1hRwm3f5dFB" version="14.1.6" type="github">
  <diagram id="DsoXj_QxR49eFqtG_JAd" name="Page-1">
    <mxGraphModel dx="946" dy="536" grid="1" gridSize="10" guides="1" tooltips="1" connect="1" arrows="1" fold="1" page="1" pageScale="1" pageWidth="827" pageHeight="1169" math="0" shadow="0">
      <root>
        <mxCell id="0" />
        <mxCell id="1" parent="0" />
        <mxCell id="oeXPhKKHjcdUr-GD-Unt-1" style="rounded=0;orthogonalLoop=1;jettySize=auto;html=1;exitX=1;exitY=0;exitDx=0;exitDy=0;entryX=0;entryY=0.5;entryDx=0;entryDy=0;sketch=1;startArrow=classic;startFill=1;" edge="1" parent="1" source="oeXPhKKHjcdUr-GD-Unt-3" target="oeXPhKKHjcdUr-GD-Unt-4">
          <mxGeometry relative="1" as="geometry" />
        </mxCell>
        <mxCell id="oeXPhKKHjcdUr-GD-Unt-2" style="rounded=0;orthogonalLoop=1;jettySize=auto;html=1;exitX=1;exitY=1;exitDx=0;exitDy=0;entryX=0;entryY=0.5;entryDx=0;entryDy=0;sketch=1;startArrow=classic;startFill=1;" edge="1" parent="1" source="oeXPhKKHjcdUr-GD-Unt-3" target="oeXPhKKHjcdUr-GD-Unt-5">
          <mxGeometry relative="1" as="geometry" />
        </mxCell>
        <mxCell id="oeXPhKKHjcdUr-GD-Unt-3" value="Eureka1" style="ellipse;whiteSpace=wrap;html=1;fillColor=#dae8fc;strokeColor=#6c8ebf;sketch=1;" vertex="1" parent="1">
          <mxGeometry x="160" y="180" width="120" height="80" as="geometry" />
        </mxCell>
        <mxCell id="oeXPhKKHjcdUr-GD-Unt-8" style="edgeStyle=orthogonalEdgeStyle;rounded=0;orthogonalLoop=1;jettySize=auto;html=1;entryX=0.5;entryY=0;entryDx=0;entryDy=0;startArrow=classic;startFill=1;sketch=1;" edge="1" parent="1" source="oeXPhKKHjcdUr-GD-Unt-4" target="oeXPhKKHjcdUr-GD-Unt-5">
          <mxGeometry relative="1" as="geometry" />
        </mxCell>
        <mxCell id="oeXPhKKHjcdUr-GD-Unt-4" value="&lt;span style=&quot;color: rgb(51 , 51 , 51)&quot;&gt;Eureka2&lt;/span&gt;" style="ellipse;whiteSpace=wrap;html=1;fillColor=#dae8fc;strokeColor=#6c8ebf;sketch=1;" vertex="1" parent="1">
          <mxGeometry x="390" y="70" width="120" height="80" as="geometry" />
        </mxCell>
        <mxCell id="oeXPhKKHjcdUr-GD-Unt-5" value="&lt;span style=&quot;color: rgb(51 , 51 , 51)&quot;&gt;Eureka3&lt;/span&gt;" style="ellipse;whiteSpace=wrap;html=1;fillColor=#dae8fc;strokeColor=#6c8ebf;sketch=1;" vertex="1" parent="1">
          <mxGeometry x="390" y="270" width="120" height="80" as="geometry" />
        </mxCell>
        <mxCell id="oeXPhKKHjcdUr-GD-Unt-6" value="sync" style="text;html=1;strokeColor=none;fillColor=none;align=center;verticalAlign=middle;whiteSpace=wrap;rounded=0;sketch=1;" vertex="1" parent="1">
          <mxGeometry x="290" y="120" width="40" height="20" as="geometry" />
        </mxCell>
        <mxCell id="oeXPhKKHjcdUr-GD-Unt-7" value="sync" style="text;html=1;strokeColor=none;fillColor=none;align=center;verticalAlign=middle;whiteSpace=wrap;rounded=0;sketch=1;" vertex="1" parent="1">
          <mxGeometry x="290" y="300" width="40" height="20" as="geometry" />
        </mxCell>
        <mxCell id="oeXPhKKHjcdUr-GD-Unt-9" value="sync" style="text;html=1;strokeColor=none;fillColor=none;align=center;verticalAlign=middle;whiteSpace=wrap;rounded=0;sketch=1;" vertex="1" parent="1">
          <mxGeometry x="470" y="200" width="40" height="20" as="geometry" />
        </mxCell>
      </root>
    </mxGraphModel>
  </diagram>
</mxfile>
